# xmcd
# Track frame offsets:
# 150
# 12772
# 30420
# 46022
# 64507
# 88632
# 106372
# 123912
# 175037
# 194025
# 217325
# 235737
# 270175
#
# Disc length: 3800 seconds
# Revision: 0
# Processed by: cddbd v1.4PL0 Copyright (c) Steve Scherf et al.
# Submitted via: VisiTrax 2.9.5.181 - For more info visit www.synapsa.com
#
DISCID=a30ed60d
DTITLE=Liz Mc Comb - Fire
DYEAR=2002
DGENRE=
TTITLE0=You can´t hurry god
TTITLE1=The man upstairs
TTITLE2=Whenever you pray
TTITLE3=Give him up
TTITLE4=Time is now
TTITLE5=Don´t let the devil ride
TTITLE6=What happened to the love
TTITLE7=Fire
TTITLE8=Open Our Eyes
TTITLE9=Jesus is a Rock
TTITLE10=Stand by me
TTITLE11=Chant de liberté - Song of freedom
TTITLE12=Fire
EXTD=
EXTT0=
EXTT1=
EXTT2=
EXTT3=
EXTT4=
EXTT5=
EXTT6=
EXTT7=
EXTT8=
EXTT9=
EXTT10=
EXTT11=
EXTT12=
PLAYORDER=
